<svg width="27" height="27" viewBox="0 0 27 27" fill="none" xmlns="http://www.w3.org/2000/svg">
<path d="M21.7926 25.4154H4.64063C2.63764 25.4154 1 23.7418 1 21.695V4.72044C1 2.67354 2.63764 1 4.64063 1H21.7926C23.7956 1 25.4333 2.67354 25.4333 4.72044V21.695C25.4365 23.7418 23.7956 25.4154 21.7926 25.4154Z" stroke="#FFF" stroke-width="1.5" stroke-miterlimit="10" stroke-linecap="round" stroke-linejoin="round"/>
<path d="M13.2168 19.2943C16.6912 19.2943 19.5078 16.416 19.5078 12.8654C19.5078 9.31484 16.6912 6.43652 13.2168 6.43652C9.74235 6.43652 6.92578 9.31484 6.92578 12.8654C6.92578 16.416 9.74235 19.2943 13.2168 19.2943Z" stroke="#FFF" stroke-width="1.5" stroke-miterlimit="10" stroke-linecap="round" stroke-linejoin="round"/>
<path d="M20.5297 6.76752C20.9155 6.76752 21.2283 6.44787 21.2283 6.05356C21.2283 5.65925 20.9155 5.3396 20.5297 5.3396C20.1438 5.3396 19.8311 5.65925 19.8311 6.05356C19.8311 6.44787 20.1438 6.76752 20.5297 6.76752Z" stroke="#FFF" stroke-width="1.5" stroke-miterlimit="10" stroke-linecap="round" stroke-linejoin="round"/>
</svg>
