<svg width="214" height="58" viewBox="0 0 214 58" fill="none" xmlns="http://www.w3.org/2000/svg">
<g filter="url(#filter0_d)">
<path d="M174.298 10.564C174.302 15.4778 171.885 19.221 167.651 20.6862C163.604 22.087 159.81 21.5233 156.51 18.6818C154.543 16.9875 153.58 14.7307 153.317 12.1693C153.054 9.6057 153.363 7.13546 154.723 4.89534C156.468 2.02155 159.117 0.511831 162.388 0.121617C165.447 -0.243027 168.268 0.457357 170.689 2.44178C172.882 4.23943 173.956 6.62852 174.227 9.41449C174.267 9.83916 174.28 10.265 174.298 10.564ZM158.691 10.7897C158.671 11.1855 158.708 11.6802 158.804 12.1749C159.219 14.286 160.95 15.957 162.995 16.2071C165.398 16.5006 167.439 15.3989 168.379 13.2844C168.931 12.0448 168.994 10.7486 168.783 9.42338C168.327 6.56292 165.564 4.67189 162.733 5.29112C160.171 5.85031 158.691 7.82473 158.691 10.7897Z" fill="#E3242A"/>
<path d="M134.555 10.257C136.859 11.6367 137.244 13.6956 136.758 16.0624C136.248 18.5449 134.761 20.1769 132.246 20.7706C131.633 20.9151 131.004 20.9618 130.375 20.9629C127.398 20.9673 124.421 20.9551 121.444 20.9762C120.994 20.9796 120.901 20.8439 120.902 20.4193C120.916 13.919 120.915 7.41881 120.903 0.918581C120.902 0.53059 120.96 0.380508 121.403 0.383843C124.158 0.407189 126.913 0.378285 129.668 0.401631C132.848 0.4272 135.324 2.4094 135.948 5.44551C136.256 6.94633 136.155 8.53609 134.555 10.257ZM128.362 16.237C128.952 16.237 129.544 16.2536 130.134 16.2336C131.134 16.1992 131.705 15.5822 131.711 14.5605C131.718 13.5244 131.113 12.8184 130.135 12.7984C128.88 12.7717 127.625 12.7973 126.368 12.7862C126.105 12.784 126.016 12.8629 126.02 13.1308C126.033 14.0558 126.034 14.9796 126.019 15.9046C126.014 16.1781 126.108 16.2492 126.367 16.2436C127.032 16.2281 127.697 16.2381 128.362 16.237ZM127.837 8.40268C127.837 8.39379 127.837 8.38378 127.837 8.37489C128.333 8.37489 128.831 8.39601 129.326 8.37044C130.28 8.32153 130.825 7.71786 130.821 6.75511C130.817 5.80459 130.233 5.14645 129.314 5.12088C128.337 5.09309 127.36 5.11977 126.383 5.10865C126.14 5.10643 126.014 5.14645 126.02 5.43439C126.037 6.32043 126.032 7.20647 126.022 8.09362C126.019 8.3382 126.11 8.4138 126.345 8.40713C126.841 8.39379 127.338 8.40268 127.837 8.40268Z" fill="#E3242A"/>
<path d="M117.122 20.9653C116.419 20.9653 115.715 20.9508 115.014 20.9719C114.688 20.9819 114.512 20.8641 114.385 20.565C114.123 19.9558 113.813 19.3677 113.55 18.7596C113.433 18.4895 113.294 18.3594 112.979 18.3605C110.557 18.3716 108.134 18.3727 105.711 18.3594C105.394 18.3572 105.251 18.4906 105.137 18.7585C104.87 19.3844 104.574 19.9981 104.298 20.6206C104.189 20.8652 104.033 20.9742 103.748 20.9708C102.287 20.9564 100.825 20.9553 99.3647 20.9719C99.0373 20.9753 98.9718 20.8596 98.9619 20.5573C98.9374 19.7857 99.4058 19.1999 99.6977 18.5617C102.444 12.5495 105.225 6.55403 107.98 0.546291C108.148 0.178311 108.355 0.043793 108.73 0.0960439C108.839 0.111608 108.952 0.0982673 109.063 0.0982673C110.512 0.0982673 110.492 0.107161 111.087 1.40787C112.866 5.29222 114.661 9.16991 116.45 13.0498C117.507 15.34 118.564 17.6301 119.622 19.9202C119.692 20.0725 119.721 20.2282 119.743 20.3961C119.804 20.8552 119.648 21.0075 119.175 20.9764C118.492 20.9319 117.806 20.9653 117.122 20.9653ZM109.317 8.53178C108.562 10.2939 107.857 11.9436 107.146 13.5912C107.063 13.7835 107.097 13.858 107.312 13.858C108.738 13.8547 110.163 13.8569 111.653 13.8569C110.869 12.0659 110.117 10.355 109.317 8.53178Z" fill="#E3242A"/>
<path d="M189.521 41.6878C189.25 41.7067 189.166 41.8679 189.054 41.9779C185.942 45.0129 182.826 48.0468 179.729 51.0974C179.385 51.4364 179.047 51.581 178.568 51.5698C177.314 51.5398 177.312 51.5598 177.312 50.2802C177.312 44.0769 177.321 37.8723 177.297 31.6689C177.295 31.0853 177.463 30.9674 178.005 30.9819C179.409 31.0208 180.815 31.0119 182.22 30.9841C182.64 30.9763 182.743 31.0964 182.741 31.51C182.723 34.4916 182.731 37.4732 182.731 40.4549C182.731 40.5805 182.731 40.705 182.731 40.8373C182.994 40.8618 183.078 40.6661 183.199 40.5483C186.311 37.5133 189.428 34.4805 192.52 31.4244C192.92 31.0286 193.307 30.8485 193.872 30.8707C195.014 30.9152 195.015 30.8841 195.015 32.0514C195.015 38.3104 195.016 44.5705 195.014 50.8294C195.014 51.6699 195.092 51.5532 194.263 51.5576C192.895 51.5632 191.526 51.5387 190.159 51.5698C189.67 51.581 189.501 51.472 189.507 50.9406C189.535 48.0702 189.52 45.1997 189.52 42.3292C189.521 42.1269 189.521 41.9235 189.521 41.6878Z" fill="#C4C4C4"/>
<path d="M165.024 51.6409C163.194 51.6409 161.364 51.6509 159.534 51.6331C159.149 51.6298 159.007 51.7387 159.033 52.1323C159.064 52.5748 159.02 53.0217 159.047 53.4641C159.068 53.8177 158.927 53.8999 158.598 53.8955C157.415 53.8788 156.232 53.8777 155.049 53.8966C154.709 53.9021 154.608 53.8043 154.61 53.4597C154.626 51.4419 154.626 49.423 154.61 47.4053C154.607 47.0473 154.741 46.9428 155.062 46.9861C155.099 46.9906 155.138 46.9795 155.173 46.9872C156.375 47.2518 156.91 46.6882 157.367 45.5843C159.353 40.7927 161.451 36.0479 163.498 31.282C163.66 30.904 163.873 30.7873 164.305 30.7217C165.656 30.5149 166.266 31.0707 166.797 32.3203C168.792 37.0273 170.942 41.6688 173.012 46.3447C173.217 46.8094 173.43 47.0495 173.976 47.0028C174.444 46.9617 175.06 46.7849 175.363 47.0906C175.665 47.3952 175.455 48.0067 175.458 48.4814C175.47 50.129 175.454 51.7765 175.469 53.4241C175.473 53.781 175.378 53.9055 175.005 53.8977C173.841 53.8744 172.676 53.8777 171.511 53.8966C171.169 53.9021 171.051 53.7921 171.073 53.4541C171.097 53.085 171.046 52.7104 171.086 52.3446C171.145 51.8043 170.993 51.6109 170.402 51.6253C168.611 51.6687 166.817 51.6409 165.024 51.6409ZM164.882 39.6021C163.968 41.9867 163.092 44.2735 162.214 46.5592C162.063 46.9539 162.35 46.885 162.558 46.8861C164.145 46.8883 165.733 46.8727 167.321 46.8961C167.795 46.9028 167.736 46.7182 167.608 46.4047C167.218 45.4486 166.847 44.4859 166.464 43.5276C165.952 42.2502 165.435 40.974 164.882 39.6021Z" fill="#C4C4C4"/>
<path d="M101.535 41.2765C101.535 38.0536 101.548 34.8318 101.522 31.6089C101.517 31.0798 101.682 30.973 102.17 30.983C103.593 31.0142 105.018 31.0108 106.441 30.9842C106.863 30.9764 106.967 31.1053 106.962 31.5156C106.943 33.7379 106.971 35.9602 106.94 38.1825C106.932 38.6995 107.102 38.8151 107.569 38.7751C108.177 38.7228 108.786 38.6761 109.369 38.4949C111.06 37.968 111.812 36.6906 112.073 35.0408C112.258 33.868 112.194 32.6784 112.26 31.4978C112.28 31.132 112.339 30.9797 112.746 30.9864C114.243 31.0097 115.741 30.9975 117.238 30.9942C117.489 30.9942 117.731 30.9664 117.701 31.3466C117.557 33.2043 117.74 35.082 117.243 36.9174C116.733 38.8007 115.722 40.3126 114.126 41.4221C113.824 41.6322 113.767 41.7667 113.975 42.1014C115.678 44.8295 117.358 47.571 119.044 50.3092C119.112 50.4192 119.188 50.5271 119.235 50.646C119.481 51.2819 119.295 51.561 118.632 51.561C117.08 51.561 115.526 51.5476 113.973 51.5699C113.574 51.5754 113.354 51.4609 113.152 51.0985C111.868 48.7895 110.544 46.5015 109.256 44.1936C109.03 43.7867 108.792 43.6233 108.31 43.67C106.954 43.8012 106.952 43.7778 106.952 45.1497C106.952 47.113 106.941 49.0763 106.961 51.0385C106.965 51.4476 106.862 51.5788 106.438 51.571C104.997 51.5443 103.553 51.5321 102.112 51.5754C101.583 51.591 101.522 51.3965 101.525 50.944C101.544 47.7211 101.535 44.4982 101.535 41.2765Z" fill="#C4C4C4"/>
<path d="M121.537 41.2774C121.537 38.0378 121.547 34.7983 121.525 31.5587C121.522 31.0873 121.66 30.9806 122.113 30.984C124.977 31.0051 127.842 30.9851 130.707 30.9973C134.542 31.0129 137.52 33.7988 137.878 37.6343C138.116 40.1823 137.533 42.4491 135.727 44.3124C134.411 45.6698 132.736 46.2468 130.884 46.3146C129.684 46.3579 128.481 46.3446 127.28 46.3246C126.891 46.3179 126.777 46.4346 126.783 46.8238C126.804 48.249 126.78 49.6742 126.798 51.0994C126.803 51.4652 126.689 51.573 126.328 51.5686C124.886 51.5508 123.444 51.5463 122.003 51.5708C121.585 51.5786 121.528 51.4129 121.529 51.0527C121.541 47.7932 121.537 44.5347 121.537 41.2774ZM126.788 38.6626C126.788 39.4575 126.804 40.2535 126.782 41.0473C126.771 41.4152 126.851 41.5731 127.262 41.562C128.351 41.5342 129.44 41.5553 130.53 41.5509C131.161 41.5475 131.666 41.2807 132.054 40.7838C132.884 39.721 132.981 37.821 132.241 36.7027C131.868 36.139 131.362 35.791 130.649 35.7443C129.523 35.6699 128.398 35.7299 127.272 35.6988C126.867 35.6876 126.772 35.8522 126.782 36.2235C126.804 37.0351 126.788 37.8499 126.788 38.6626Z" fill="#C4C4C4"/>
<path d="M139.634 41.2897C139.634 38.0312 139.641 34.7728 139.625 31.5154C139.623 31.1097 139.716 30.9829 140.141 30.9851C144.078 31.0018 148.016 31.0007 151.952 30.9874C152.346 30.9862 152.506 31.0585 152.495 31.4988C152.464 32.7383 152.47 33.979 152.493 35.2197C152.501 35.6377 152.356 35.76 151.949 35.7566C149.824 35.74 147.698 35.7489 145.572 35.7489C144.87 35.7489 144.87 35.7489 144.87 36.477C144.87 37.014 144.894 37.5521 144.863 38.0868C144.839 38.4848 144.989 38.5849 145.367 38.5815C147.345 38.5648 149.323 38.586 151.301 38.5637C151.733 38.5593 151.871 38.6682 151.86 39.1151C151.829 40.3358 151.826 41.5587 151.861 42.7805C151.875 43.2474 151.704 43.3241 151.291 43.3208C149.332 43.3019 147.372 43.3263 145.413 43.3019C144.968 43.2963 144.843 43.4297 144.86 43.8644C144.894 44.6404 144.901 45.4208 144.858 46.1957C144.829 46.7182 144.972 46.8939 145.522 46.8861C147.72 46.8549 149.921 46.8927 152.12 46.8594C152.652 46.8516 152.757 47.0261 152.744 47.512C152.711 48.7149 152.723 49.9188 152.739 51.1217C152.744 51.4519 152.663 51.5686 152.311 51.5675C148.225 51.5553 144.141 51.5531 140.056 51.5697C139.636 51.5709 139.628 51.3752 139.629 51.065C139.636 47.8055 139.634 44.5481 139.634 41.2897Z" fill="#C4C4C4"/>
<path d="M206.975 43.7044C206.975 46.1491 206.965 48.5949 206.984 51.0396C206.987 51.4542 206.878 51.5765 206.458 51.5687C205.053 51.5421 203.647 51.5376 202.242 51.571C201.772 51.5821 201.702 51.4064 201.703 50.9962C201.716 46.1436 201.701 41.2909 201.725 36.4371C201.727 35.8746 201.588 35.7123 201.022 35.7323C199.729 35.7768 198.433 35.7356 197.139 35.7534C196.777 35.759 196.664 35.6534 196.67 35.2832C196.692 34.0058 196.691 32.7273 196.67 31.4488C196.665 31.0809 196.779 30.9852 197.137 30.9852C201.928 30.9964 206.717 30.9975 211.507 30.9841C211.898 30.983 212.007 31.0909 212 31.48C211.976 32.7573 211.98 34.0358 211.997 35.3143C212.002 35.6578 211.891 35.7568 211.555 35.7534C210.223 35.7367 208.891 35.7734 207.56 35.7334C207.04 35.7178 206.96 35.9079 206.964 36.3693C206.986 38.8151 206.975 41.2598 206.975 43.7044Z" fill="#C4C4C4"/>
<path d="M142.524 13.0454C142.524 10.5829 142.515 8.12045 142.533 5.6591C142.536 5.24443 142.458 5.08879 142 5.10102C140.652 5.13548 139.302 5.09991 137.953 5.12214C137.586 5.1277 137.489 5.02098 137.495 4.65967C137.517 3.3823 137.514 2.10493 137.497 0.827566C137.492 0.491826 137.575 0.387325 137.925 0.388436C142.731 0.400665 147.536 0.398442 152.343 0.39066C152.644 0.39066 152.762 0.45514 152.757 0.783097C152.739 2.09715 152.739 3.41232 152.757 4.72637C152.762 5.05322 152.647 5.12214 152.347 5.11881C151.016 5.10435 149.684 5.14326 148.354 5.09768C147.813 5.07878 147.737 5.27334 147.738 5.74915C147.754 10.5996 147.735 15.45 147.765 20.3005C147.768 20.8908 147.591 20.9931 147.058 20.9775C145.71 20.9397 144.36 20.9508 143.01 20.9742C142.627 20.9808 142.513 20.883 142.515 20.4872C142.533 18.007 142.524 15.5256 142.524 13.0454Z" fill="#E32429"/>
<path d="M71.5062 33.3387C70.0633 33.1642 68.676 32.9863 67.2854 32.8318C65.6883 32.6539 64.09 32.4894 62.4918 32.3359C62.2244 32.3104 61.988 32.2503 61.7715 32.0947C60.2854 31.0297 58.7571 30.0291 57.2078 29.0608C56.9414 28.8952 56.7749 28.6895 56.6517 28.406C55.5863 25.9602 54.5097 23.52 53.4331 21.0787C53.3832 20.9664 53.371 20.8185 53.1889 20.754C52.5663 22.1982 51.9381 23.6434 51.3177 25.092C48.8904 30.7584 46.4654 36.4248 44.0392 42.0913C42.744 45.1163 41.4388 48.1368 40.1558 51.1663C39.9915 51.5542 39.8095 51.7255 39.3545 51.7221C35.6186 51.6999 31.8828 51.701 28.1481 51.721C27.6953 51.7232 27.6576 51.5676 27.6032 51.1663C27.3956 49.6299 28.2469 48.4359 28.8285 47.1663C32.6953 38.7328 36.5876 30.3104 40.4688 21.8824C43.7418 14.7752 47.0147 7.66797 50.2722 0.554076C50.4576 0.150522 50.6595 -0.00956591 51.1201 0.000439569C52.6174 0.0349029 54.1157 0.0293443 55.614 0.00266301C56.028 -0.00511903 56.2233 0.133846 56.3942 0.505161C59.1878 6.57627 61.9979 12.6407 64.8015 18.7074C67.0179 23.5022 69.2287 28.3004 71.4418 33.0964C71.4618 33.1475 71.4696 33.2031 71.5062 33.3387Z" fill="#E32429"/>
<path d="M20.9731 49.5676C21.8499 47.7044 22.6801 45.8178 23.6201 43.9868C24.1895 42.8784 24.3682 41.7545 24.3182 40.5316C24.2594 39.1097 24.3049 37.6834 24.3049 36.157C24.9786 36.5427 25.6001 36.8796 26.2006 37.2509C26.4913 37.4299 26.6334 37.4443 26.791 37.0841C27.3515 35.8112 27.9497 34.555 28.6034 33.1409C27.6545 33.6978 26.8509 34.1648 26.0529 34.6395C25.7466 34.8207 25.6256 34.8073 25.6279 34.3904C25.6434 31.7612 25.6356 29.132 25.6356 26.3894C26.397 26.8263 27.1029 27.2298 27.8065 27.6356C28.5723 28.077 29.3448 28.5072 30.0962 28.9708C30.3836 29.1487 30.4991 29.0642 30.6145 28.7974C30.8198 28.3238 31.2804 27.8057 31.1916 27.4044C31.1006 26.9908 30.3814 26.8552 29.9475 26.5806C29.4702 26.2793 28.9719 26.0114 28.4325 25.7001C29.9785 24.8085 31.4735 23.9403 32.9752 23.0831C33.2238 22.9408 33.3969 22.7696 33.5201 22.5006C36.883 15.1921 40.2581 7.89036 43.6188 0.580802C43.8141 0.155013 44.0505 -0.0217506 44.5333 0.00270725C45.419 0.0460643 46.308 0.0293885 47.1948 0.00937757C47.6199 -0.000627913 47.7886 0.0127127 47.5499 0.522992C45.4789 4.95876 43.4379 9.40897 41.3846 13.8525C37.4557 22.3583 33.5257 30.863 29.5967 39.3687C28.0452 42.7272 26.5047 46.0902 24.9375 49.4409C24.6578 50.0379 24.7821 50.6405 24.7766 51.2386C24.7722 51.6366 24.6534 51.7333 24.2738 51.7233C23.3127 51.6977 22.3504 51.6955 21.3904 51.7233C20.9897 51.7344 20.8721 51.5954 20.9032 51.2163C20.9487 50.6649 20.8443 50.1068 20.9809 49.5588L20.9731 49.5676Z" fill="#E3242A"/>
<path d="M42.623 49.2564C44.5698 44.7116 46.5131 40.1769 48.4565 35.6411C48.4909 35.6467 48.5253 35.6533 48.5597 35.6589C48.5597 36.6005 48.5597 37.541 48.5597 38.5805C50.169 37.6511 51.694 36.7717 53.2889 35.8512C52.078 35.1508 50.9371 34.4716 49.775 33.8312C49.4287 33.64 49.3677 33.4844 49.5331 33.1153C50.1724 31.6878 50.7806 30.2459 51.3832 28.8018C51.5031 28.5139 51.6074 28.4361 51.9415 28.5239C53.9515 29.0564 55.8582 29.7979 57.5829 30.9908C58.9625 31.9446 60.4164 32.7907 61.7349 33.8357C61.8759 33.9469 62.0302 33.9724 62.1989 33.9824C65.3342 34.1636 68.4652 34.3993 71.5828 34.7818C75.8491 35.3054 80.0955 35.9413 84.1287 37.5355C85.3507 38.018 86.4905 38.6505 87.5593 39.4221C88.9467 40.4237 89.4938 41.6911 88.9655 43.3742C88.6093 44.5082 88.6758 45.6233 89.1664 46.7239C89.3751 47.1919 89.4949 47.7033 89.6148 48.2036C89.7835 48.9128 89.5005 49.2908 88.7813 49.2953C86.5993 49.3075 84.4173 49.2919 82.2353 49.3075C81.8024 49.3108 81.9034 49.1318 82.0122 48.8795C82.7591 47.143 82.8457 45.3709 82.232 43.5821C81.1399 40.3971 77.9956 38.3615 74.6915 38.6817C71.373 39.003 68.655 41.5388 68.1644 44.8095C67.958 46.188 68.1089 47.5376 68.6849 48.8228C68.8159 49.1163 68.8936 49.3097 68.4097 49.3097C59.8659 49.2975 51.3233 49.3008 42.7795 49.2986C42.7462 49.2986 42.7141 49.2819 42.623 49.2564ZM55.028 42.4704C56.6251 41.5466 58.1468 40.6661 59.7194 39.7556C58.129 38.8373 56.6074 37.9591 55.028 37.0474C55.028 38.8896 55.028 40.6405 55.028 42.4704ZM52.1246 45.0407C52.1246 43.4921 52.1246 42.0157 52.1246 40.4738C50.7983 41.242 49.5242 41.979 48.179 42.7572C49.5286 43.5377 50.8061 44.277 52.1246 45.0407ZM46.0192 44.4326C46.0192 45.7689 46.0192 47.0229 46.0192 48.3258C47.1613 47.6655 48.2512 47.0351 49.3855 46.3792C48.2501 45.7233 47.158 45.0919 46.0192 44.4326ZM55.0269 48.3303C55.8504 47.85 56.6063 47.4098 57.3943 46.9495C56.5907 46.4882 55.836 46.0546 55.0269 45.5899C55.0269 46.5315 55.0269 47.3898 55.0269 48.3303Z" fill="white"/>
<path d="M81.2644 45.9234C81.28 49.1963 78.6518 51.8655 75.3921 51.8889C72.1347 51.9122 69.4688 49.273 69.4455 46.0023C69.4222 42.696 72.0459 40.0268 75.3411 40.0023C78.5775 39.979 81.25 42.6505 81.2644 45.9234ZM77.3544 45.9567C77.3577 44.8372 76.4776 43.9445 75.3622 43.9367C74.259 43.9289 73.35 44.8317 73.3467 45.9389C73.3433 47.0473 74.2412 47.9578 75.3444 47.9645C76.4465 47.9723 77.3511 47.0684 77.3544 45.9567Z" fill="white"/>
<path d="M22.9842 35.382C21.1896 36.4192 19.4393 37.4309 17.6436 38.4692C17.6436 36.4081 17.6436 34.4003 17.6436 32.3003C19.4315 33.3331 21.1862 34.3447 22.9842 35.382Z" fill="#E3242A"/>
<path d="M22.9436 31.7758C21.1467 30.7363 19.4043 29.728 17.5752 28.6696C19.4031 27.6124 21.1467 26.604 22.9436 25.5635C22.9436 27.6635 22.9436 29.6891 22.9436 31.7758Z" fill="#E3242A"/>
<path d="M22.2743 46.536C20.4963 45.5076 18.7638 44.5071 16.9336 43.4498C18.7405 42.4037 20.4785 41.3976 22.2743 40.3582C22.2743 42.4304 22.2743 44.4337 22.2743 46.536Z" fill="#E3242A"/>
<path d="M13.1978 32.2903C13.1978 34.387 13.1978 36.3925 13.1978 38.4748C11.4054 37.4387 9.66175 36.4314 7.85156 35.3853C9.63956 34.3503 11.3843 33.3397 13.1978 32.2903Z" fill="#E3242A"/>
<path d="M10.5029 42.9118C12.0301 42.028 13.4729 41.192 14.9568 40.3337C14.9568 42.0525 14.9568 43.7245 14.9568 45.4821C13.4785 44.6283 12.0345 43.7956 10.5029 42.9118Z" fill="#E3242A"/>
<path d="M20.9808 49.5585C20.8498 49.3695 20.7544 49.5563 20.67 49.6041C19.5668 50.23 18.4692 50.8648 17.3693 51.4963C17.2616 51.5585 17.1651 51.6586 16.9941 51.6297C16.9941 50.1422 16.9941 48.6536 16.9941 47.085C17.8898 47.5952 18.7588 48.0877 19.6267 48.5847C19.9775 48.7859 20.3182 49.0049 20.6733 49.1983C20.8321 49.2851 20.9586 49.374 20.9719 49.5674C20.973 49.5674 20.9808 49.5585 20.9808 49.5585Z" fill="#E3242A"/>
<path d="M7.86388 44.368C6.70851 43.7032 5.58422 43.0562 4.40332 42.3758C5.56202 41.7043 6.68299 41.054 7.86388 40.3691C7.86388 41.7121 7.86388 43.0028 7.86388 44.368Z" fill="#E3242A"/>
<path d="M8.78125 27.5923C9.98102 26.8997 11.1064 26.2482 12.3195 25.5479C12.3195 26.8597 12.3173 28.0859 12.3206 29.3121C12.3217 29.6768 12.1286 29.5367 11.9743 29.4478C10.9255 28.8419 9.87891 28.2304 8.78125 27.5923Z" fill="#E3242A"/>
<path d="M2 37.1429C2 35.9367 2 34.8283 2 33.6321C3.02108 34.218 3.99998 34.7794 5.04325 35.3786C4.01885 35.9734 3.04549 36.537 2 37.1429Z" fill="#E3242A"/>
<path d="M9.32422 50.2068C9.32422 49.0184 9.32422 47.9167 9.32422 46.7205C10.3286 47.2974 11.2887 47.8489 12.3453 48.4559C11.3098 49.0562 10.3442 49.6154 9.32422 50.2068Z" fill="#E3242A"/>
<path d="M27.0974 25.0287C26.3127 24.5751 25.5857 24.1549 24.7744 23.6846C25.5602 23.2266 26.2994 22.7953 27.0974 22.3306C27.0974 23.2566 27.0974 24.0949 27.0974 25.0287Z" fill="#E3242A"/>
</g>
<defs>
<filter id="filter0_d" x="0" y="0" width="214" height="57.898" filterUnits="userSpaceOnUse" color-interpolation-filters="sRGB">
<feFlood flood-opacity="0" result="BackgroundImageFix"/>
<feColorMatrix in="SourceAlpha" type="matrix" values="0 0 0 0 0 0 0 0 0 0 0 0 0 0 0 0 0 0 127 0"/>
<feOffset dy="2"/>
<feGaussianBlur stdDeviation="1"/>
<feColorMatrix type="matrix" values="0 0 0 0 0 0 0 0 0 0 0 0 0 0 0 0 0 0 0.15 0"/>
<feBlend mode="normal" in2="BackgroundImageFix" result="effect1_dropShadow"/>
<feBlend mode="normal" in="SourceGraphic" in2="effect1_dropShadow" result="shape"/>
</filter>
</defs>
</svg>
