<svg width="210" height="54" viewBox="0 0 210 54" fill="none" xmlns="http://www.w3.org/2000/svg">
<path d="M172.298 10.564C172.302 15.4778 169.885 19.221 165.651 20.6862C161.604 22.087 157.809 21.5233 154.51 18.6818C152.543 16.9875 151.58 14.7307 151.317 12.1693C151.054 9.6057 151.362 7.13546 152.723 4.89534C154.468 2.02155 157.117 0.511831 160.388 0.121617C163.446 -0.243027 166.268 0.457357 168.688 2.44178C170.881 4.23943 171.956 6.62852 172.226 9.41449C172.266 9.83916 172.28 10.265 172.298 10.564ZM156.691 10.7897C156.671 11.1855 156.707 11.6802 156.804 12.1749C157.219 14.286 158.949 15.957 160.995 16.2071C163.398 16.5006 165.439 15.3989 166.379 13.2844C166.93 12.0448 166.993 10.7486 166.783 9.42338C166.326 6.56292 163.564 4.67189 160.733 5.29112C158.17 5.85031 156.691 7.82473 156.691 10.7897Z" fill="#E3242A"/>
<path d="M132.554 10.257C134.858 11.6367 135.244 13.6956 134.757 16.0624C134.248 18.5449 132.761 20.1769 130.246 20.7706C129.632 20.9151 129.004 20.9618 128.375 20.9629C125.398 20.9673 122.42 20.9551 119.443 20.9762C118.994 20.9796 118.901 20.8439 118.902 20.4193C118.915 13.919 118.914 7.41881 118.903 0.918581C118.902 0.53059 118.96 0.380508 119.402 0.383843C122.157 0.407189 124.913 0.378285 127.668 0.401631C130.847 0.4272 133.323 2.4094 133.947 5.44551C134.256 6.94633 134.155 8.53609 132.554 10.257ZM126.361 16.237C126.952 16.237 127.543 16.2536 128.134 16.2336C129.134 16.1992 129.704 15.5822 129.711 14.5605C129.718 13.5244 129.113 12.8184 128.135 12.7984C126.88 12.7717 125.624 12.7973 124.368 12.7862C124.105 12.784 124.015 12.8629 124.019 13.1308C124.033 14.0558 124.034 14.9796 124.018 15.9046C124.014 16.1781 124.107 16.2492 124.367 16.2436C125.032 16.2281 125.696 16.2381 126.361 16.237ZM125.836 8.40268C125.836 8.39379 125.836 8.38378 125.836 8.37489C126.332 8.37489 126.831 8.39601 127.326 8.37044C128.279 8.32153 128.824 7.71786 128.821 6.75511C128.816 5.80459 128.233 5.14645 127.314 5.12088C126.337 5.09309 125.359 5.11977 124.382 5.10865C124.139 5.10643 124.014 5.14645 124.019 5.43439C124.036 6.32043 124.032 7.20647 124.022 8.09362C124.018 8.3382 124.109 8.4138 124.345 8.40713C124.841 8.39379 125.338 8.40268 125.836 8.40268Z" fill="#E3242A"/>
<path d="M115.122 20.9653C114.419 20.9653 113.715 20.9508 113.014 20.9719C112.688 20.9819 112.512 20.8641 112.385 20.565C112.123 19.9558 111.813 19.3677 111.55 18.7596C111.433 18.4895 111.294 18.3594 110.979 18.3605C108.557 18.3716 106.134 18.3727 103.711 18.3594C103.394 18.3572 103.251 18.4906 103.137 18.7585C102.87 19.3844 102.574 19.9981 102.298 20.6206C102.189 20.8652 102.033 20.9742 101.748 20.9708C100.287 20.9564 98.8253 20.9553 97.3647 20.9719C97.0373 20.9753 96.9718 20.8596 96.9619 20.5573C96.9374 19.7857 97.4058 19.1999 97.6977 18.5617C100.444 12.5495 103.225 6.55403 105.98 0.546291C106.148 0.178311 106.355 0.043793 106.73 0.0960439C106.839 0.111608 106.952 0.0982673 107.063 0.0982673C108.512 0.0982673 108.492 0.107161 109.087 1.40787C110.866 5.29222 112.661 9.16991 114.45 13.0498C115.507 15.34 116.564 17.6301 117.622 19.9202C117.692 20.0725 117.721 20.2282 117.743 20.3961C117.804 20.8552 117.648 21.0075 117.175 20.9764C116.492 20.9319 115.806 20.9653 115.122 20.9653ZM107.317 8.53178C106.562 10.2939 105.857 11.9436 105.146 13.5912C105.063 13.7835 105.097 13.858 105.312 13.858C106.738 13.8547 108.163 13.8569 109.653 13.8569C108.869 12.0659 108.117 10.355 107.317 8.53178Z" fill="#E3242A"/>
<path d="M187.521 41.6878C187.25 41.7067 187.166 41.8679 187.054 41.9779C183.942 45.0129 180.826 48.0468 177.729 51.0974C177.385 51.4364 177.047 51.581 176.568 51.5698C175.314 51.5398 175.312 51.5598 175.312 50.2802C175.312 44.0769 175.321 37.8723 175.297 31.6689C175.295 31.0853 175.463 30.9674 176.005 30.9819C177.409 31.0208 178.815 31.0119 180.22 30.9841C180.64 30.9763 180.743 31.0964 180.741 31.51C180.723 34.4916 180.731 37.4732 180.731 40.4549C180.731 40.5805 180.731 40.705 180.731 40.8373C180.994 40.8618 181.078 40.6661 181.199 40.5483C184.311 37.5133 187.428 34.4805 190.52 31.4244C190.92 31.0286 191.307 30.8485 191.872 30.8707C193.014 30.9152 193.015 30.8841 193.015 32.0514C193.015 38.3104 193.016 44.5705 193.014 50.8294C193.014 51.6699 193.092 51.5532 192.263 51.5576C190.895 51.5632 189.526 51.5387 188.159 51.5698C187.67 51.581 187.501 51.472 187.507 50.9406C187.535 48.0702 187.52 45.1997 187.52 42.3292C187.521 42.1269 187.521 41.9235 187.521 41.6878Z" fill="#464646"/>
<path d="M163.024 51.6409C161.194 51.6409 159.364 51.6509 157.534 51.6331C157.149 51.6298 157.007 51.7387 157.033 52.1323C157.064 52.5748 157.02 53.0217 157.047 53.4641C157.068 53.8177 156.927 53.8999 156.598 53.8955C155.415 53.8788 154.232 53.8777 153.049 53.8966C152.709 53.9021 152.608 53.8043 152.61 53.4597C152.626 51.4419 152.626 49.423 152.61 47.4053C152.607 47.0473 152.741 46.9428 153.062 46.9861C153.099 46.9906 153.138 46.9795 153.173 46.9872C154.375 47.2518 154.91 46.6882 155.367 45.5843C157.353 40.7927 159.451 36.0479 161.498 31.282C161.66 30.904 161.873 30.7873 162.305 30.7217C163.656 30.5149 164.266 31.0707 164.797 32.3203C166.792 37.0273 168.942 41.6688 171.012 46.3447C171.217 46.8094 171.43 47.0495 171.976 47.0028C172.444 46.9617 173.06 46.7849 173.363 47.0906C173.665 47.3952 173.455 48.0067 173.458 48.4814C173.47 50.129 173.454 51.7765 173.469 53.4241C173.473 53.781 173.378 53.9055 173.005 53.8977C171.841 53.8744 170.676 53.8777 169.511 53.8966C169.169 53.9021 169.051 53.7921 169.073 53.4541C169.097 53.085 169.046 52.7104 169.086 52.3446C169.145 51.8043 168.993 51.6109 168.402 51.6253C166.611 51.6687 164.817 51.6409 163.024 51.6409ZM162.882 39.6021C161.968 41.9867 161.092 44.2735 160.214 46.5592C160.063 46.9539 160.35 46.885 160.558 46.8861C162.145 46.8883 163.733 46.8727 165.321 46.8961C165.795 46.9028 165.736 46.7182 165.608 46.4047C165.218 45.4486 164.847 44.4859 164.464 43.5276C163.952 42.2502 163.435 40.974 162.882 39.6021Z" fill="#464646"/>
<path d="M99.5349 41.2765C99.5349 38.0536 99.5482 34.8318 99.5216 31.6089C99.5171 31.0798 99.6825 30.973 100.17 30.983C101.593 31.0142 103.018 31.0108 104.441 30.9842C104.863 30.9764 104.967 31.1053 104.962 31.5156C104.943 33.7379 104.971 35.9602 104.94 38.1825C104.932 38.6995 105.102 38.8151 105.569 38.7751C106.177 38.7228 106.786 38.6761 107.369 38.4949C109.06 37.968 109.812 36.6906 110.073 35.0408C110.258 33.868 110.194 32.6784 110.26 31.4978C110.28 31.132 110.339 30.9797 110.746 30.9864C112.243 31.0097 113.741 30.9975 115.238 30.9942C115.489 30.9942 115.731 30.9664 115.701 31.3466C115.557 33.2043 115.74 35.082 115.243 36.9174C114.733 38.8007 113.722 40.3126 112.126 41.4221C111.824 41.6322 111.767 41.7667 111.975 42.1014C113.678 44.8295 115.358 47.571 117.044 50.3092C117.112 50.4192 117.188 50.5271 117.235 50.646C117.481 51.2819 117.295 51.561 116.632 51.561C115.08 51.561 113.526 51.5476 111.973 51.5699C111.574 51.5754 111.354 51.4609 111.152 51.0985C109.868 48.7895 108.544 46.5015 107.256 44.1936C107.03 43.7867 106.792 43.6233 106.31 43.67C104.954 43.8012 104.952 43.7778 104.952 45.1497C104.952 47.113 104.941 49.0763 104.961 51.0385C104.965 51.4476 104.862 51.5788 104.438 51.571C102.997 51.5443 101.553 51.5321 100.112 51.5754C99.5826 51.591 99.5216 51.3965 99.5249 50.944C99.5438 47.7211 99.5349 44.4982 99.5349 41.2765Z" fill="#464646"/>
<path d="M119.537 41.2774C119.537 38.0378 119.547 34.7983 119.525 31.5587C119.522 31.0873 119.66 30.9806 120.113 30.984C122.977 31.0051 125.842 30.9851 128.707 30.9973C132.542 31.0129 135.52 33.7988 135.878 37.6343C136.116 40.1823 135.533 42.4491 133.727 44.3124C132.411 45.6698 130.736 46.2468 128.884 46.3146C127.684 46.3579 126.481 46.3446 125.28 46.3246C124.891 46.3179 124.777 46.4346 124.783 46.8238C124.804 48.249 124.78 49.6742 124.798 51.0994C124.803 51.4652 124.689 51.573 124.328 51.5686C122.886 51.5508 121.444 51.5463 120.003 51.5708C119.585 51.5786 119.528 51.4129 119.529 51.0527C119.541 47.7932 119.537 44.5347 119.537 41.2774ZM124.788 38.6626C124.788 39.4575 124.804 40.2535 124.782 41.0473C124.771 41.4152 124.851 41.5731 125.262 41.562C126.351 41.5342 127.44 41.5553 128.53 41.5509C129.161 41.5475 129.666 41.2807 130.054 40.7838C130.884 39.721 130.981 37.821 130.241 36.7027C129.868 36.139 129.362 35.791 128.649 35.7443C127.523 35.6699 126.398 35.7299 125.272 35.6988C124.867 35.6876 124.772 35.8522 124.782 36.2235C124.804 37.0351 124.788 37.8499 124.788 38.6626Z" fill="#464646"/>
<path d="M137.634 41.2897C137.634 38.0312 137.641 34.7728 137.625 31.5154C137.623 31.1097 137.716 30.9829 138.141 30.9851C142.078 31.0018 146.016 31.0007 149.952 30.9874C150.346 30.9862 150.506 31.0585 150.495 31.4988C150.464 32.7383 150.47 33.979 150.493 35.2197C150.501 35.6377 150.356 35.76 149.949 35.7566C147.824 35.74 145.698 35.7489 143.572 35.7489C142.87 35.7489 142.87 35.7489 142.87 36.477C142.87 37.014 142.894 37.5521 142.863 38.0868C142.839 38.4848 142.989 38.5849 143.367 38.5815C145.345 38.5648 147.323 38.586 149.301 38.5637C149.733 38.5593 149.871 38.6682 149.86 39.1151C149.829 40.3358 149.826 41.5587 149.861 42.7805C149.875 43.2474 149.704 43.3241 149.291 43.3208C147.332 43.3019 145.372 43.3263 143.413 43.3019C142.968 43.2963 142.843 43.4297 142.86 43.8644C142.894 44.6404 142.901 45.4208 142.858 46.1957C142.829 46.7182 142.972 46.8939 143.522 46.8861C145.72 46.8549 147.921 46.8927 150.12 46.8594C150.652 46.8516 150.757 47.0261 150.744 47.512C150.711 48.7149 150.723 49.9188 150.739 51.1217C150.744 51.4519 150.663 51.5686 150.311 51.5675C146.225 51.5553 142.141 51.5531 138.056 51.5697C137.636 51.5709 137.628 51.3752 137.629 51.065C137.636 47.8055 137.634 44.5481 137.634 41.2897Z" fill="#464646"/>
<path d="M204.975 43.7044C204.975 46.1491 204.965 48.5949 204.984 51.0396C204.987 51.4542 204.878 51.5765 204.458 51.5687C203.053 51.5421 201.647 51.5376 200.242 51.571C199.772 51.5821 199.702 51.4064 199.703 50.9962C199.716 46.1436 199.701 41.2909 199.725 36.4371C199.727 35.8746 199.588 35.7123 199.022 35.7323C197.729 35.7768 196.433 35.7356 195.139 35.7534C194.777 35.759 194.664 35.6534 194.67 35.2832C194.692 34.0058 194.691 32.7273 194.67 31.4488C194.665 31.0809 194.779 30.9852 195.137 30.9852C199.928 30.9964 204.717 30.9975 209.507 30.9841C209.898 30.983 210.007 31.0909 210 31.48C209.976 32.7573 209.98 34.0358 209.997 35.3143C210.002 35.6578 209.891 35.7568 209.555 35.7534C208.223 35.7367 206.891 35.7734 205.56 35.7334C205.04 35.7178 204.96 35.9079 204.964 36.3693C204.986 38.8151 204.975 41.2598 204.975 43.7044Z" fill="#464646"/>
<path d="M140.524 13.0454C140.524 10.5829 140.515 8.12045 140.533 5.6591C140.536 5.24443 140.457 5.08879 140 5.10102C138.651 5.13548 137.302 5.09991 135.952 5.12214C135.586 5.1277 135.488 5.02098 135.495 4.65967C135.516 3.3823 135.514 2.10493 135.496 0.827566C135.492 0.491826 135.575 0.387325 135.924 0.388436C140.73 0.400665 145.536 0.398442 150.343 0.39066C150.643 0.39066 150.761 0.45514 150.757 0.783097C150.739 2.09715 150.739 3.41232 150.757 4.72637C150.761 5.05322 150.647 5.12214 150.346 5.11881C149.015 5.10435 147.683 5.14326 146.354 5.09768C145.812 5.07878 145.737 5.27334 145.738 5.74915C145.753 10.5996 145.735 15.45 145.765 20.3005C145.768 20.8908 145.59 20.9931 145.058 20.9775C143.709 20.9397 142.359 20.9508 141.01 20.9742C140.627 20.9808 140.513 20.883 140.515 20.4872C140.533 18.007 140.524 15.5256 140.524 13.0454Z" fill="#E32429"/>
<path d="M69.5062 33.3387C68.0633 33.1642 66.676 32.9863 65.2854 32.8318C63.6883 32.6539 62.09 32.4894 60.4918 32.3359C60.2244 32.3104 59.988 32.2503 59.7715 32.0947C58.2854 31.0297 56.7571 30.0291 55.2078 29.0608C54.9414 28.8952 54.7749 28.6895 54.6517 28.406C53.5863 25.9602 52.5097 23.52 51.4331 21.0787C51.3832 20.9664 51.371 20.8185 51.1889 20.754C50.5663 22.1982 49.9381 23.6434 49.3177 25.092C46.8904 30.7584 44.4654 36.4248 42.0392 42.0913C40.744 45.1163 39.4388 48.1368 38.1558 51.1663C37.9915 51.5542 37.8095 51.7255 37.3545 51.7221C33.6186 51.6999 29.8828 51.701 26.1481 51.721C25.6953 51.7232 25.6576 51.5676 25.6032 51.1663C25.3956 49.6299 26.2469 48.4359 26.8285 47.1663C30.6953 38.7328 34.5876 30.3104 38.4688 21.8824C41.7418 14.7752 45.0147 7.66797 48.2722 0.554076C48.4576 0.150522 48.6595 -0.00956591 49.1201 0.000439569C50.6174 0.0349029 52.1157 0.0293443 53.614 0.00266301C54.028 -0.00511903 54.2233 0.133846 54.3942 0.505161C57.1878 6.57627 59.9979 12.6407 62.8015 18.7074C65.0179 23.5022 67.2287 28.3004 69.4418 33.0964C69.4618 33.1475 69.4696 33.2031 69.5062 33.3387Z" fill="#E32429"/>
<path d="M18.9731 49.5676C19.8499 47.7044 20.6801 45.8178 21.6201 43.9868C22.1895 42.8784 22.3682 41.7545 22.3182 40.5316C22.2594 39.1097 22.3049 37.6834 22.3049 36.157C22.9786 36.5427 23.6001 36.8796 24.2006 37.2509C24.4913 37.4299 24.6334 37.4443 24.791 37.0841C25.3515 35.8112 25.9497 34.555 26.6034 33.1409C25.6545 33.6978 24.8509 34.1648 24.0529 34.6395C23.7466 34.8207 23.6256 34.8073 23.6279 34.3904C23.6434 31.7612 23.6356 29.132 23.6356 26.3894C24.397 26.8263 25.1029 27.2298 25.8065 27.6356C26.5723 28.077 27.3448 28.5072 28.0962 28.9708C28.3836 29.1487 28.4991 29.0642 28.6145 28.7974C28.8198 28.3238 29.2804 27.8057 29.1916 27.4044C29.1006 26.9908 28.3814 26.8552 27.9475 26.5806C27.4702 26.2793 26.9719 26.0114 26.4325 25.7001C27.9785 24.8085 29.4735 23.9403 30.9752 23.0831C31.2238 22.9408 31.3969 22.7696 31.5201 22.5006C34.883 15.1921 38.2581 7.89036 41.6188 0.580802C41.8141 0.155013 42.0505 -0.0217506 42.5333 0.00270725C43.419 0.0460643 44.308 0.0293885 45.1948 0.00937757C45.6199 -0.000627913 45.7886 0.0127127 45.5499 0.522992C43.4789 4.95876 41.4379 9.40897 39.3846 13.8525C35.4557 22.3583 31.5257 30.863 27.5967 39.3687C26.0452 42.7272 24.5047 46.0902 22.9375 49.4409C22.6578 50.0379 22.7821 50.6405 22.7766 51.2386C22.7722 51.6366 22.6534 51.7333 22.2738 51.7233C21.3127 51.6977 20.3504 51.6955 19.3904 51.7233C18.9897 51.7344 18.8721 51.5954 18.9032 51.2163C18.9487 50.6649 18.8443 50.1068 18.9809 49.5588L18.9731 49.5676Z" fill="#E3242A"/>
<path d="M40.623 49.2564C42.5698 44.7116 44.5131 40.1769 46.4565 35.6411C46.4909 35.6467 46.5253 35.6533 46.5597 35.6589C46.5597 36.6005 46.5597 37.541 46.5597 38.5805C48.169 37.6511 49.694 36.7717 51.2889 35.8512C50.078 35.1508 48.9371 34.4716 47.775 33.8312C47.4287 33.64 47.3677 33.4844 47.5331 33.1153C48.1724 31.6878 48.7806 30.2459 49.3832 28.8018C49.5031 28.5139 49.6074 28.4361 49.9415 28.5239C51.9515 29.0564 53.8582 29.7979 55.5829 30.9908C56.9625 31.9446 58.4164 32.7907 59.7349 33.8357C59.8759 33.9469 60.0302 33.9724 60.1989 33.9824C63.3342 34.1636 66.4652 34.3993 69.5828 34.7818C73.8491 35.3054 78.0955 35.9413 82.1287 37.5355C83.3507 38.018 84.4905 38.6505 85.5593 39.4221C86.9467 40.4237 87.4938 41.6911 86.9655 43.3742C86.6093 44.5082 86.6758 45.6233 87.1664 46.7239C87.3751 47.1919 87.4949 47.7033 87.6148 48.2036C87.7835 48.9128 87.5005 49.2908 86.7813 49.2953C84.5993 49.3075 82.4173 49.2919 80.2353 49.3075C79.8024 49.3108 79.9034 49.1318 80.0122 48.8795C80.7591 47.143 80.8457 45.3709 80.232 43.5821C79.1399 40.3971 75.9956 38.3615 72.6915 38.6817C69.373 39.003 66.655 41.5388 66.1644 44.8095C65.958 46.188 66.1089 47.5376 66.6849 48.8228C66.8159 49.1163 66.8936 49.3097 66.4097 49.3097C57.8659 49.2975 49.3233 49.3008 40.7795 49.2986C40.7462 49.2986 40.7141 49.2819 40.623 49.2564ZM53.028 42.4704C54.6251 41.5466 56.1468 40.6661 57.7194 39.7556C56.129 38.8373 54.6074 37.9591 53.028 37.0474C53.028 38.8896 53.028 40.6405 53.028 42.4704ZM50.1246 45.0407C50.1246 43.4921 50.1246 42.0157 50.1246 40.4738C48.7983 41.242 47.5242 41.979 46.179 42.7572C47.5286 43.5377 48.8061 44.277 50.1246 45.0407ZM44.0192 44.4326C44.0192 45.7689 44.0192 47.0229 44.0192 48.3258C45.1613 47.6655 46.2512 47.0351 47.3855 46.3792C46.2501 45.7233 45.158 45.0919 44.0192 44.4326ZM53.0269 48.3303C53.8504 47.85 54.6063 47.4098 55.3943 46.9495C54.5907 46.4882 53.836 46.0546 53.0269 45.5899C53.0269 46.5315 53.0269 47.3898 53.0269 48.3303Z" fill="#464646"/>
<path d="M79.2644 45.9234C79.28 49.1963 76.6518 51.8655 73.3921 51.8889C70.1347 51.9122 67.4688 49.273 67.4455 46.0023C67.4222 42.696 70.0459 40.0268 73.3411 40.0023C76.5775 39.979 79.25 42.6505 79.2644 45.9234ZM75.3544 45.9567C75.3577 44.8372 74.4776 43.9445 73.3622 43.9367C72.259 43.9289 71.35 44.8317 71.3467 45.9389C71.3433 47.0473 72.2412 47.9578 73.3444 47.9645C74.4465 47.9723 75.3511 47.0684 75.3544 45.9567Z" fill="#464646"/>
<path d="M20.9842 35.382C19.1896 36.4192 17.4393 37.4309 15.6436 38.4692C15.6436 36.4081 15.6436 34.4003 15.6436 32.3003C17.4315 33.3331 19.1862 34.3447 20.9842 35.382Z" fill="#E3242A"/>
<path d="M20.9436 31.7758C19.1467 30.7363 17.4043 29.728 15.5752 28.6696C17.4031 27.6124 19.1467 26.604 20.9436 25.5635C20.9436 27.6635 20.9436 29.6891 20.9436 31.7758Z" fill="#E3242A"/>
<path d="M20.2743 46.536C18.4963 45.5076 16.7638 44.5071 14.9336 43.4498C16.7405 42.4037 18.4785 41.3976 20.2743 40.3582C20.2743 42.4304 20.2743 44.4337 20.2743 46.536Z" fill="#E3242A"/>
<path d="M11.1978 32.2903C11.1978 34.387 11.1978 36.3925 11.1978 38.4748C9.40535 37.4387 7.66175 36.4314 5.85156 35.3853C7.63956 34.3503 9.38427 33.3397 11.1978 32.2903Z" fill="#E3242A"/>
<path d="M8.50293 42.9118C10.0301 42.028 11.4729 41.192 12.9568 40.3337C12.9568 42.0525 12.9568 43.7245 12.9568 45.4821C11.4785 44.6283 10.0345 43.7956 8.50293 42.9118Z" fill="#E3242A"/>
<path d="M18.9808 49.5585C18.8498 49.3695 18.7544 49.5563 18.67 49.6041C17.5668 50.23 16.4692 50.8648 15.3693 51.4963C15.2616 51.5585 15.1651 51.6586 14.9941 51.6297C14.9941 50.1422 14.9941 48.6536 14.9941 47.085C15.8898 47.5952 16.7588 48.0877 17.6267 48.5847C17.9775 48.7859 18.3182 49.0049 18.6733 49.1983C18.8321 49.2851 18.9586 49.374 18.9719 49.5674C18.973 49.5674 18.9808 49.5585 18.9808 49.5585Z" fill="#E3242A"/>
<path d="M5.86388 44.368C4.70851 43.7032 3.58422 43.0562 2.40332 42.3758C3.56202 41.7043 4.68299 41.054 5.86388 40.3691C5.86388 41.7121 5.86388 43.0028 5.86388 44.368Z" fill="#E3242A"/>
<path d="M6.78125 27.5923C7.98102 26.8997 9.10642 26.2482 10.3195 25.5479C10.3195 26.8597 10.3173 28.0859 10.3206 29.3121C10.3217 29.6768 10.1286 29.5367 9.97434 29.4478C8.92551 28.8419 7.87891 28.2304 6.78125 27.5923Z" fill="#E3242A"/>
<path d="M0 37.1429C0 35.9367 0 34.8283 0 33.6321C1.02108 34.218 1.99998 34.7794 3.04325 35.3786C2.01885 35.9734 1.04549 36.537 0 37.1429Z" fill="#E3242A"/>
<path d="M7.32422 50.2068C7.32422 49.0184 7.32422 47.9167 7.32422 46.7205C8.32865 47.2974 9.28868 47.8489 10.3453 48.4559C9.30977 49.0562 8.34419 49.6154 7.32422 50.2068Z" fill="#E3242A"/>
<path d="M25.0974 25.0287C24.3127 24.5751 23.5857 24.1549 22.7744 23.6846C23.5602 23.2266 24.2994 22.7953 25.0974 22.3306C25.0974 23.2566 25.0974 24.0949 25.0974 25.0287Z" fill="#E3242A"/>
</svg>
